<mxfile host="app.diagrams.net" agent="Mozilla/5.0 (Windows NT 10.0; Win64; x64) AppleWebKit/537.36 (KHTML, like Gecko) Chrome/131.0.0.0 Safari/537.36" version="25.0.1">
  <diagram name="Page-1" id="S2R3_60Vc6FQAhSgHKqO">
    <mxGraphModel dx="1434" dy="815" grid="1" gridSize="10" guides="1" tooltips="1" connect="1" arrows="1" fold="1" page="1" pageScale="1" pageWidth="850" pageHeight="1100" math="0" shadow="0">
      <root>
        <mxCell id="0" />
        <mxCell id="1" parent="0" />
        <mxCell id="TWhxAL6_lHbO3gYfyS63-9" style="edgeStyle=orthogonalEdgeStyle;rounded=0;orthogonalLoop=1;jettySize=auto;html=1;exitX=0.75;exitY=1;exitDx=0;exitDy=0;entryX=0.25;entryY=0;entryDx=0;entryDy=0;" edge="1" parent="1" source="TWhxAL6_lHbO3gYfyS63-1" target="TWhxAL6_lHbO3gYfyS63-7">
          <mxGeometry relative="1" as="geometry" />
        </mxCell>
        <mxCell id="TWhxAL6_lHbO3gYfyS63-10" value="UART RTCM OUT" style="edgeLabel;html=1;align=center;verticalAlign=middle;resizable=0;points=[];" vertex="1" connectable="0" parent="TWhxAL6_lHbO3gYfyS63-9">
          <mxGeometry x="0.2308" y="2" relative="1" as="geometry">
            <mxPoint as="offset" />
          </mxGeometry>
        </mxCell>
        <mxCell id="TWhxAL6_lHbO3gYfyS63-1" value="" style="whiteSpace=wrap;html=1;aspect=fixed;" vertex="1" parent="1">
          <mxGeometry x="50" y="220" width="80" height="80" as="geometry" />
        </mxCell>
        <mxCell id="TWhxAL6_lHbO3gYfyS63-2" value="Sparkfun&lt;div&gt;BASE&lt;/div&gt;" style="text;html=1;align=center;verticalAlign=middle;whiteSpace=wrap;rounded=0;" vertex="1" parent="1">
          <mxGeometry x="60" y="245" width="60" height="30" as="geometry" />
        </mxCell>
        <mxCell id="TWhxAL6_lHbO3gYfyS63-48" style="edgeStyle=orthogonalEdgeStyle;rounded=0;orthogonalLoop=1;jettySize=auto;html=1;exitX=1;exitY=0.5;exitDx=0;exitDy=0;entryX=1;entryY=0.25;entryDx=0;entryDy=0;" edge="1" parent="1" source="TWhxAL6_lHbO3gYfyS63-3" target="TWhxAL6_lHbO3gYfyS63-43">
          <mxGeometry relative="1" as="geometry" />
        </mxCell>
        <mxCell id="TWhxAL6_lHbO3gYfyS63-49" value="UART GPS/RTK NMEA" style="edgeLabel;html=1;align=center;verticalAlign=middle;resizable=0;points=[];" vertex="1" connectable="0" parent="TWhxAL6_lHbO3gYfyS63-48">
          <mxGeometry x="-0.0609" relative="1" as="geometry">
            <mxPoint as="offset" />
          </mxGeometry>
        </mxCell>
        <mxCell id="TWhxAL6_lHbO3gYfyS63-3" value="" style="whiteSpace=wrap;html=1;aspect=fixed;" vertex="1" parent="1">
          <mxGeometry x="670" y="220" width="80" height="80" as="geometry" />
        </mxCell>
        <mxCell id="TWhxAL6_lHbO3gYfyS63-4" value="Sparkfun&lt;div&gt;ROVER&lt;/div&gt;" style="text;html=1;align=center;verticalAlign=middle;whiteSpace=wrap;rounded=0;" vertex="1" parent="1">
          <mxGeometry x="680" y="245" width="60" height="30" as="geometry" />
        </mxCell>
        <mxCell id="TWhxAL6_lHbO3gYfyS63-7" value="" style="rounded=0;whiteSpace=wrap;html=1;" vertex="1" parent="1">
          <mxGeometry x="100" y="350" width="60" height="90" as="geometry" />
        </mxCell>
        <mxCell id="TWhxAL6_lHbO3gYfyS63-12" style="edgeStyle=orthogonalEdgeStyle;rounded=0;orthogonalLoop=1;jettySize=auto;html=1;exitX=1;exitY=0.5;exitDx=0;exitDy=0;entryX=0;entryY=0.5;entryDx=0;entryDy=0;" edge="1" parent="1" source="TWhxAL6_lHbO3gYfyS63-8" target="TWhxAL6_lHbO3gYfyS63-11">
          <mxGeometry relative="1" as="geometry" />
        </mxCell>
        <mxCell id="TWhxAL6_lHbO3gYfyS63-35" value="SPI" style="edgeLabel;html=1;align=center;verticalAlign=middle;resizable=0;points=[];" vertex="1" connectable="0" parent="TWhxAL6_lHbO3gYfyS63-12">
          <mxGeometry y="2" relative="1" as="geometry">
            <mxPoint as="offset" />
          </mxGeometry>
        </mxCell>
        <mxCell id="TWhxAL6_lHbO3gYfyS63-8" value="Arduino" style="text;html=1;align=center;verticalAlign=middle;whiteSpace=wrap;rounded=0;" vertex="1" parent="1">
          <mxGeometry x="100" y="380" width="60" height="30" as="geometry" />
        </mxCell>
        <mxCell id="TWhxAL6_lHbO3gYfyS63-15" style="edgeStyle=orthogonalEdgeStyle;rounded=0;orthogonalLoop=1;jettySize=auto;html=1;exitX=0.5;exitY=1;exitDx=0;exitDy=0;entryX=0.5;entryY=0;entryDx=0;entryDy=0;" edge="1" parent="1" source="TWhxAL6_lHbO3gYfyS63-11" target="TWhxAL6_lHbO3gYfyS63-14">
          <mxGeometry relative="1" as="geometry" />
        </mxCell>
        <mxCell id="TWhxAL6_lHbO3gYfyS63-11" value="W5500&lt;div&gt;ETH&lt;/div&gt;" style="whiteSpace=wrap;html=1;aspect=fixed;" vertex="1" parent="1">
          <mxGeometry x="200" y="362.5" width="65" height="65" as="geometry" />
        </mxCell>
        <mxCell id="TWhxAL6_lHbO3gYfyS63-17" style="edgeStyle=orthogonalEdgeStyle;rounded=0;orthogonalLoop=1;jettySize=auto;html=1;exitX=0.5;exitY=1;exitDx=0;exitDy=0;entryX=0.5;entryY=0;entryDx=0;entryDy=0;" edge="1" parent="1" source="TWhxAL6_lHbO3gYfyS63-14" target="TWhxAL6_lHbO3gYfyS63-16">
          <mxGeometry relative="1" as="geometry" />
        </mxCell>
        <mxCell id="TWhxAL6_lHbO3gYfyS63-14" value="ETH Switch" style="rounded=0;whiteSpace=wrap;html=1;" vertex="1" parent="1">
          <mxGeometry x="172.5" y="470" width="120" height="60" as="geometry" />
        </mxCell>
        <mxCell id="TWhxAL6_lHbO3gYfyS63-16" value="WIFI" style="rounded=0;whiteSpace=wrap;html=1;" vertex="1" parent="1">
          <mxGeometry x="199" y="570" width="67" height="110" as="geometry" />
        </mxCell>
        <mxCell id="TWhxAL6_lHbO3gYfyS63-31" style="edgeStyle=orthogonalEdgeStyle;rounded=0;orthogonalLoop=1;jettySize=auto;html=1;exitX=1;exitY=0.5;exitDx=0;exitDy=0;entryX=0;entryY=0.5;entryDx=0;entryDy=0;" edge="1" parent="1" source="TWhxAL6_lHbO3gYfyS63-23" target="TWhxAL6_lHbO3gYfyS63-27">
          <mxGeometry relative="1" as="geometry" />
        </mxCell>
        <mxCell id="TWhxAL6_lHbO3gYfyS63-36" value="SPI" style="edgeLabel;html=1;align=center;verticalAlign=middle;resizable=0;points=[];" vertex="1" connectable="0" parent="TWhxAL6_lHbO3gYfyS63-31">
          <mxGeometry x="0.0534" relative="1" as="geometry">
            <mxPoint x="1" as="offset" />
          </mxGeometry>
        </mxCell>
        <mxCell id="TWhxAL6_lHbO3gYfyS63-23" value="W5500&lt;div&gt;ETH&lt;/div&gt;" style="whiteSpace=wrap;html=1;aspect=fixed;" vertex="1" parent="1">
          <mxGeometry x="552" y="362.5" width="65" height="65" as="geometry" />
        </mxCell>
        <mxCell id="TWhxAL6_lHbO3gYfyS63-30" style="edgeStyle=orthogonalEdgeStyle;rounded=0;orthogonalLoop=1;jettySize=auto;html=1;exitX=0.5;exitY=0;exitDx=0;exitDy=0;entryX=0.5;entryY=1;entryDx=0;entryDy=0;" edge="1" parent="1" source="TWhxAL6_lHbO3gYfyS63-25" target="TWhxAL6_lHbO3gYfyS63-23">
          <mxGeometry relative="1" as="geometry" />
        </mxCell>
        <mxCell id="TWhxAL6_lHbO3gYfyS63-25" value="ETH Switch" style="rounded=0;whiteSpace=wrap;html=1;" vertex="1" parent="1">
          <mxGeometry x="523.5" y="470" width="120" height="60" as="geometry" />
        </mxCell>
        <mxCell id="TWhxAL6_lHbO3gYfyS63-29" style="edgeStyle=orthogonalEdgeStyle;rounded=0;orthogonalLoop=1;jettySize=auto;html=1;exitX=0.5;exitY=0;exitDx=0;exitDy=0;entryX=0.5;entryY=1;entryDx=0;entryDy=0;" edge="1" parent="1" source="TWhxAL6_lHbO3gYfyS63-26" target="TWhxAL6_lHbO3gYfyS63-25">
          <mxGeometry relative="1" as="geometry" />
        </mxCell>
        <mxCell id="TWhxAL6_lHbO3gYfyS63-26" value="WIFI" style="rounded=0;whiteSpace=wrap;html=1;" vertex="1" parent="1">
          <mxGeometry x="550" y="570" width="67" height="110" as="geometry" />
        </mxCell>
        <mxCell id="TWhxAL6_lHbO3gYfyS63-32" style="edgeStyle=orthogonalEdgeStyle;rounded=0;orthogonalLoop=1;jettySize=auto;html=1;exitX=0.5;exitY=0;exitDx=0;exitDy=0;entryX=0.5;entryY=1;entryDx=0;entryDy=0;" edge="1" parent="1" source="TWhxAL6_lHbO3gYfyS63-27" target="TWhxAL6_lHbO3gYfyS63-3">
          <mxGeometry relative="1" as="geometry" />
        </mxCell>
        <mxCell id="TWhxAL6_lHbO3gYfyS63-33" value="UART RTCM IN" style="edgeLabel;html=1;align=center;verticalAlign=middle;resizable=0;points=[];" vertex="1" connectable="0" parent="TWhxAL6_lHbO3gYfyS63-32">
          <mxGeometry x="0.12" relative="1" as="geometry">
            <mxPoint as="offset" />
          </mxGeometry>
        </mxCell>
        <mxCell id="TWhxAL6_lHbO3gYfyS63-27" value="" style="rounded=0;whiteSpace=wrap;html=1;" vertex="1" parent="1">
          <mxGeometry x="680" y="350" width="60" height="90" as="geometry" />
        </mxCell>
        <mxCell id="TWhxAL6_lHbO3gYfyS63-28" value="Arduino" style="text;html=1;align=center;verticalAlign=middle;whiteSpace=wrap;rounded=0;" vertex="1" parent="1">
          <mxGeometry x="680" y="380" width="60" height="30" as="geometry" />
        </mxCell>
        <mxCell id="TWhxAL6_lHbO3gYfyS63-37" value="" style="endArrow=none;dashed=1;html=1;dashPattern=1 3;strokeWidth=2;rounded=0;exitX=0.97;exitY=0.441;exitDx=0;exitDy=0;exitPerimeter=0;entryX=0.06;entryY=0.414;entryDx=0;entryDy=0;entryPerimeter=0;" edge="1" parent="1" source="TWhxAL6_lHbO3gYfyS63-16" target="TWhxAL6_lHbO3gYfyS63-26">
          <mxGeometry width="50" height="50" relative="1" as="geometry">
            <mxPoint x="420" y="650" as="sourcePoint" />
            <mxPoint x="470" y="600" as="targetPoint" />
          </mxGeometry>
        </mxCell>
        <mxCell id="TWhxAL6_lHbO3gYfyS63-38" value="5G" style="edgeLabel;html=1;align=center;verticalAlign=middle;resizable=0;points=[];" vertex="1" connectable="0" parent="TWhxAL6_lHbO3gYfyS63-37">
          <mxGeometry x="-0.081" y="-1" relative="1" as="geometry">
            <mxPoint as="offset" />
          </mxGeometry>
        </mxCell>
        <mxCell id="TWhxAL6_lHbO3gYfyS63-41" style="edgeStyle=orthogonalEdgeStyle;rounded=0;orthogonalLoop=1;jettySize=auto;html=1;exitX=0.5;exitY=1;exitDx=0;exitDy=0;entryX=0.5;entryY=0;entryDx=0;entryDy=0;" edge="1" parent="1" source="TWhxAL6_lHbO3gYfyS63-39" target="TWhxAL6_lHbO3gYfyS63-1">
          <mxGeometry relative="1" as="geometry" />
        </mxCell>
        <mxCell id="TWhxAL6_lHbO3gYfyS63-39" value="GPS Antenna" style="ellipse;whiteSpace=wrap;html=1;" vertex="1" parent="1">
          <mxGeometry x="40" y="70" width="100" height="80" as="geometry" />
        </mxCell>
        <mxCell id="TWhxAL6_lHbO3gYfyS63-42" style="edgeStyle=orthogonalEdgeStyle;rounded=0;orthogonalLoop=1;jettySize=auto;html=1;exitX=0.5;exitY=1;exitDx=0;exitDy=0;entryX=0.5;entryY=0;entryDx=0;entryDy=0;" edge="1" parent="1" source="TWhxAL6_lHbO3gYfyS63-40" target="TWhxAL6_lHbO3gYfyS63-3">
          <mxGeometry relative="1" as="geometry" />
        </mxCell>
        <mxCell id="TWhxAL6_lHbO3gYfyS63-40" value="GPS Antenna" style="ellipse;whiteSpace=wrap;html=1;" vertex="1" parent="1">
          <mxGeometry x="660" y="70" width="100" height="80" as="geometry" />
        </mxCell>
        <mxCell id="TWhxAL6_lHbO3gYfyS63-43" value="PIXHAWK" style="rounded=0;whiteSpace=wrap;html=1;" vertex="1" parent="1">
          <mxGeometry x="680" y="750" width="80" height="140" as="geometry" />
        </mxCell>
      </root>
    </mxGraphModel>
  </diagram>
</mxfile>
